<svg xmlns="http://www.w3.org/2000/svg" viewBox="0 0 462 215">
  <g fill="#FFF" fill-rule="evenodd">
    <path d="M444.6 188.5C434 174 423 140 441 131.5c20.8-9.7 25.7 16 16 24-10 8.2-12.4 33-12.4 33zm-12 10.6c-8-8-17-15-26.8-21-12.5-7-28.2-11.2-42.2-15-35.8-10-16.4-72 30.4-37.7 22.2 16 30.7 47.6 38.6 74.6zM422 140s-31-47-31.3-98.2c-.2-42.8 46.5-52 59.4-28.3 15 27-6 50.4-15 66.3-10.3 19-12.3 60-12.3 60z"/>
    <path fill-rule="nonzero" d="M7 201.7l11.8-26c12.6 7 25 11.2 41.3 11.2 24 0 35-12 35-34v-6c-10 12.2-21 20-40 20-28 0-54-21-54-57v-.6c0-36.4 26-57 54-57 19 0 30 8 40 18.2V55h34v95c0 22-5 37.8-15.2 48-11.4 11.4-29 16.5-52.6 16.5-20 0-38.4-4.6-54-12.8zm88-91v-.5C95 93.5 82 82 65 82c-16.7 0-29.4 11.4-29.4 28v.4c0 17 12.7 28.3 29.6 28.3 17 0 30-11.7 30-28.4zm42.6 6v-.4c0-40.8 26.6-63 55.5-63 19 0 30 8.4 38 18.2V11.3h35v166.3h-34V160c-8.3 11.4-20 20-38 20-28.3 0-55.4-22.4-55.4-63.2zm94 0v-.4c0-20.3-13.4-33.7-29.6-33.7-16.2 0-29.8 13.2-29.8 33.7v.5c0 20.3 13.7 33.7 29.8 33.7 16.2 0 29.6-13.4 29.6-33.7zm50.8-105.4H319V42h-36.6V11.4zm1 44.2H318v122h-34.6v-122z"/>
  </g>
</svg>
