<svg xmlns="http://www.w3.org/2000/svg" viewBox="0 0 396 612">
  <path fill="#E44F26" d="M75.4 467.3l-27-303.7h297.4l-27 303.6-122 33.8"/>
  <path fill="#F1662A" d="M197 475.2l98.5-27.3 23-260H197"/>
  <path fill="#EBEBEB" d="M197 301h-49.2l-3.4-38H197v-37.3h-93.3l1 10 9 102.6H197m0 59.5l-41.6-11.2-2.6-29.7h-37.4l5.2 58 76.4 21"/>
  <path fill="#010101" d="M76 81h19v19h17V81h19v57h-19v-19H95v19H76V81zm80 19h-16.6V81h52.2v19H175v37.8h-19v-38zm44-19h19.7l12 20L244 81h19.7v57h-19v-28l-13 20h-.2l-13-20v28H200V81zm73 0h19v38h26.6v18.8H273V81z"/>
  <path fill="#FFF" d="M197 301v37.3h45.8l-4.4 48.3-41.5 11.2v38.8l76-21.2.3-6.3 8.8-98 1-10h-10m-76-75v37h90l.5-8.2 1.7-19 1-10"/>
</svg>
